G04 #@! TF.GenerationSoftware,KiCad,Pcbnew,7.0.1-3b83917a11~172~ubuntu22.10.1*
G04 #@! TF.CreationDate,2023-03-21T16:32:08+07:00*
G04 #@! TF.ProjectId,GatewayPlus_V1.4,47617465-7761-4795-906c-75735f56312e,rev?*
G04 #@! TF.SameCoordinates,Original*
G04 #@! TF.FileFunction,Soldermask,Top*
G04 #@! TF.FilePolarity,Negative*
%FSLAX46Y46*%
G04 Gerber Fmt 4.6, Leading zero omitted, Abs format (unit mm)*
G04 Created by KiCad (PCBNEW 7.0.1-3b83917a11~172~ubuntu22.10.1) date 2023-03-21 16:32:08*
%MOMM*%
%LPD*%
G01*
G04 APERTURE LIST*
G04 Aperture macros list*
%AMRoundRect*
0 Rectangle with rounded corners*
0 $1 Rounding radius*
0 $2 $3 $4 $5 $6 $7 $8 $9 X,Y pos of 4 corners*
0 Add a 4 corners polygon primitive as box body*
4,1,4,$2,$3,$4,$5,$6,$7,$8,$9,$2,$3,0*
0 Add four circle primitives for the rounded corners*
1,1,$1+$1,$2,$3*
1,1,$1+$1,$4,$5*
1,1,$1+$1,$6,$7*
1,1,$1+$1,$8,$9*
0 Add four rect primitives between the rounded corners*
20,1,$1+$1,$2,$3,$4,$5,0*
20,1,$1+$1,$4,$5,$6,$7,0*
20,1,$1+$1,$6,$7,$8,$9,0*
20,1,$1+$1,$8,$9,$2,$3,0*%
%AMRotRect*
0 Rectangle, with rotation*
0 The origin of the aperture is its center*
0 $1 length*
0 $2 width*
0 $3 Rotation angle, in degrees counterclockwise*
0 Add horizontal line*
21,1,$1,$2,0,0,$3*%
%AMFreePoly0*
4,1,19,0.500000,-0.750000,0.000000,-0.750000,0.000000,-0.744911,-0.071157,-0.744911,-0.207708,-0.704816,-0.327430,-0.627875,-0.420627,-0.520320,-0.479746,-0.390866,-0.500000,-0.250000,-0.500000,0.250000,-0.479746,0.390866,-0.420627,0.520320,-0.327430,0.627875,-0.207708,0.704816,-0.071157,0.744911,0.000000,0.744911,0.000000,0.750000,0.500000,0.750000,0.500000,-0.750000,0.500000,-0.750000,
$1*%
%AMFreePoly1*
4,1,19,0.000000,0.744911,0.071157,0.744911,0.207708,0.704816,0.327430,0.627875,0.420627,0.520320,0.479746,0.390866,0.500000,0.250000,0.500000,-0.250000,0.479746,-0.390866,0.420627,-0.520320,0.327430,-0.627875,0.207708,-0.704816,0.071157,-0.744911,0.000000,-0.744911,0.000000,-0.750000,-0.500000,-0.750000,-0.500000,0.750000,0.000000,0.750000,0.000000,0.744911,0.000000,0.744911,
$1*%
%AMFreePoly2*
4,1,14,0.318306,0.106694,0.381694,0.043306,0.400000,-0.000888,0.400000,-0.062500,0.381694,-0.106694,0.337500,-0.125000,-0.337500,-0.125000,-0.381694,-0.106694,-0.400000,-0.062500,-0.400000,0.062500,-0.381694,0.106694,-0.337500,0.125000,0.274112,0.125000,0.318306,0.106694,0.318306,0.106694,$1*%
%AMFreePoly3*
4,1,14,0.381694,0.106694,0.400000,0.062500,0.400000,0.000888,0.381694,-0.043306,0.318306,-0.106694,0.274112,-0.125000,-0.337500,-0.125000,-0.381694,-0.106694,-0.400000,-0.062500,-0.400000,0.062500,-0.381694,0.106694,-0.337500,0.125000,0.337500,0.125000,0.381694,0.106694,0.381694,0.106694,$1*%
%AMFreePoly4*
4,1,14,0.106694,0.381694,0.125000,0.337500,0.125000,-0.337500,0.106694,-0.381694,0.062500,-0.400000,-0.062500,-0.400000,-0.106694,-0.381694,-0.125000,-0.337500,-0.125000,0.274112,-0.106694,0.318306,-0.043306,0.381694,0.000888,0.400000,0.062500,0.400000,0.106694,0.381694,0.106694,0.381694,$1*%
%AMFreePoly5*
4,1,14,0.043306,0.381694,0.106694,0.318306,0.125000,0.274112,0.125000,-0.337500,0.106694,-0.381694,0.062500,-0.400000,-0.062500,-0.400000,-0.106694,-0.381694,-0.125000,-0.337500,-0.125000,0.337500,-0.106694,0.381694,-0.062500,0.400000,-0.000888,0.400000,0.043306,0.381694,0.043306,0.381694,$1*%
%AMFreePoly6*
4,1,14,0.381694,0.106694,0.400000,0.062500,0.400000,-0.062500,0.381694,-0.106694,0.337500,-0.125000,-0.274112,-0.125000,-0.318306,-0.106693,-0.381694,-0.043306,-0.400000,0.000888,-0.400000,0.062500,-0.381694,0.106694,-0.337500,0.125000,0.337500,0.125000,0.381694,0.106694,0.381694,0.106694,$1*%
%AMFreePoly7*
4,1,14,0.381694,0.106694,0.400000,0.062500,0.400000,-0.062500,0.381694,-0.106694,0.337500,-0.125000,-0.337500,-0.125000,-0.381694,-0.106694,-0.400000,-0.062500,-0.400000,-0.000888,-0.381694,0.043306,-0.318306,0.106694,-0.274112,0.125000,0.337500,0.125000,0.381694,0.106694,0.381694,0.106694,$1*%
%AMFreePoly8*
4,1,14,0.106694,0.381694,0.125000,0.337500,0.125000,-0.274112,0.106694,-0.318306,0.043306,-0.381694,-0.000888,-0.400000,-0.062500,-0.400000,-0.106694,-0.381694,-0.125000,-0.337500,-0.125000,0.337500,-0.106694,0.381694,-0.062500,0.400000,0.062500,0.400000,0.106694,0.381694,0.106694,0.381694,$1*%
%AMFreePoly9*
4,1,14,0.106694,0.381694,0.125000,0.337500,0.125000,-0.337500,0.106694,-0.381694,0.062500,-0.400000,0.000888,-0.400000,-0.043306,-0.381693,-0.106694,-0.318306,-0.125000,-0.274112,-0.125000,0.337500,-0.106694,0.381694,-0.062500,0.400000,0.062500,0.400000,0.106694,0.381694,0.106694,0.381694,$1*%
G04 Aperture macros list end*
%ADD10C,0.500000*%
%ADD11R,1.400000X1.200000*%
%ADD12RoundRect,0.127500X-0.297500X-0.322500X0.297500X-0.322500X0.297500X0.322500X-0.297500X0.322500X0*%
%ADD13R,1.100000X1.100000*%
%ADD14R,2.200000X1.100000*%
%ADD15RoundRect,0.127500X-0.322500X0.297500X-0.322500X-0.297500X0.322500X-0.297500X0.322500X0.297500X0*%
%ADD16RoundRect,0.090000X0.560000X0.210000X-0.560000X0.210000X-0.560000X-0.210000X0.560000X-0.210000X0*%
%ADD17RoundRect,0.127500X0.297500X0.322500X-0.297500X0.322500X-0.297500X-0.322500X0.297500X-0.322500X0*%
%ADD18C,0.800000*%
%ADD19C,6.400000*%
%ADD20RoundRect,0.062500X0.062500X-0.350000X0.062500X0.350000X-0.062500X0.350000X-0.062500X-0.350000X0*%
%ADD21RoundRect,0.062500X0.350000X-0.062500X0.350000X0.062500X-0.350000X0.062500X-0.350000X-0.062500X0*%
%ADD22RoundRect,0.130000X1.170000X-1.170000X1.170000X1.170000X-1.170000X1.170000X-1.170000X-1.170000X0*%
%ADD23RoundRect,0.127500X0.322500X-0.297500X0.322500X0.297500X-0.322500X0.297500X-0.322500X-0.297500X0*%
%ADD24RoundRect,0.130000X0.520000X0.820000X-0.520000X0.820000X-0.520000X-0.820000X0.520000X-0.820000X0*%
%ADD25RoundRect,0.062500X0.309359X-0.220971X-0.220971X0.309359X-0.309359X0.220971X0.220971X-0.309359X0*%
%ADD26RoundRect,0.062500X0.309359X0.220971X0.220971X0.309359X-0.309359X-0.220971X-0.220971X-0.309359X0*%
%ADD27RotRect,3.450000X3.450000X135.000000*%
%ADD28FreePoly0,0.000000*%
%ADD29FreePoly1,0.000000*%
%ADD30R,1.200000X1.400000*%
%ADD31RoundRect,0.150000X-0.525000X0.350000X-0.525000X-0.350000X0.525000X-0.350000X0.525000X0.350000X0*%
%ADD32R,2.600000X2.600000*%
%ADD33C,2.600000*%
%ADD34RoundRect,0.250000X-0.550000X1.500000X-0.550000X-1.500000X0.550000X-1.500000X0.550000X1.500000X0*%
%ADD35RoundRect,0.172500X-0.402500X-0.702500X0.402500X-0.702500X0.402500X0.702500X-0.402500X0.702500X0*%
%ADD36R,2.000000X4.600000*%
%ADD37O,2.000000X4.200000*%
%ADD38O,4.200000X2.000000*%
%ADD39RoundRect,0.172500X0.702500X-0.402500X0.702500X0.402500X-0.702500X0.402500X-0.702500X-0.402500X0*%
%ADD40RoundRect,0.075000X-0.075000X0.312500X-0.075000X-0.312500X0.075000X-0.312500X0.075000X0.312500X0*%
%ADD41RoundRect,0.075000X-0.312500X0.075000X-0.312500X-0.075000X0.312500X-0.075000X0.312500X0.075000X0*%
%ADD42R,4.800000X4.800000*%
%ADD43RoundRect,0.180000X-1.020000X-0.720000X1.020000X-0.720000X1.020000X0.720000X-1.020000X0.720000X0*%
%ADD44RoundRect,0.172500X0.402500X1.177500X-0.402500X1.177500X-0.402500X-1.177500X0.402500X-1.177500X0*%
%ADD45RoundRect,0.127500X-0.438406X-0.017678X-0.017678X-0.438406X0.438406X0.017678X0.017678X0.438406X0*%
%ADD46RoundRect,0.180000X-0.720000X1.020000X-0.720000X-1.020000X0.720000X-1.020000X0.720000X1.020000X0*%
%ADD47R,1.500000X1.500000*%
%ADD48RoundRect,0.075000X-0.075000X0.675000X-0.075000X-0.675000X0.075000X-0.675000X0.075000X0.675000X0*%
%ADD49RoundRect,0.075000X-0.675000X0.075000X-0.675000X-0.075000X0.675000X-0.075000X0.675000X0.075000X0*%
%ADD50RoundRect,0.090000X0.885000X0.210000X-0.885000X0.210000X-0.885000X-0.210000X0.885000X-0.210000X0*%
%ADD51C,1.600000*%
%ADD52RoundRect,0.090000X0.210000X-0.510000X0.210000X0.510000X-0.210000X0.510000X-0.210000X-0.510000X0*%
%ADD53RoundRect,0.127500X0.438406X0.017678X0.017678X0.438406X-0.438406X-0.017678X-0.017678X-0.438406X0*%
%ADD54RoundRect,0.090000X0.510000X0.210000X-0.510000X0.210000X-0.510000X-0.210000X0.510000X-0.210000X0*%
%ADD55C,0.650000*%
%ADD56R,1.300000X0.600000*%
%ADD57R,1.300000X0.300000*%
%ADD58O,2.100000X1.000000*%
%ADD59O,1.600000X1.000000*%
%ADD60RoundRect,0.127500X0.017678X-0.438406X0.438406X-0.017678X-0.017678X0.438406X-0.438406X0.017678X0*%
%ADD61RoundRect,0.172500X0.402500X0.702500X-0.402500X0.702500X-0.402500X-0.702500X0.402500X-0.702500X0*%
%ADD62RoundRect,0.250000X0.300000X0.300000X-0.300000X0.300000X-0.300000X-0.300000X0.300000X-0.300000X0*%
%ADD63RoundRect,0.150000X-0.650000X-0.150000X0.650000X-0.150000X0.650000X0.150000X-0.650000X0.150000X0*%
%ADD64RoundRect,0.172500X-0.702500X0.402500X-0.702500X-0.402500X0.702500X-0.402500X0.702500X0.402500X0*%
%ADD65C,3.250000*%
%ADD66RoundRect,0.250500X-0.499500X0.499500X-0.499500X-0.499500X0.499500X-0.499500X0.499500X0.499500X0*%
%ADD67C,1.500000*%
%ADD68C,2.500000*%
%ADD69RoundRect,0.229000X0.916000X1.271000X-0.916000X1.271000X-0.916000X-1.271000X0.916000X-1.271000X0*%
%ADD70O,2.200000X1.600000*%
%ADD71RoundRect,0.180000X0.720000X-1.020000X0.720000X1.020000X-0.720000X1.020000X-0.720000X-1.020000X0*%
%ADD72R,1.200000X0.400000*%
%ADD73RoundRect,0.330000X-0.770000X-0.770000X0.770000X-0.770000X0.770000X0.770000X-0.770000X0.770000X0*%
%ADD74FreePoly2,90.000000*%
%ADD75RoundRect,0.062500X0.062500X-0.337500X0.062500X0.337500X-0.062500X0.337500X-0.062500X-0.337500X0*%
%ADD76FreePoly3,90.000000*%
%ADD77FreePoly4,90.000000*%
%ADD78RoundRect,0.062500X0.337500X-0.062500X0.337500X0.062500X-0.337500X0.062500X-0.337500X-0.062500X0*%
%ADD79FreePoly5,90.000000*%
%ADD80FreePoly6,90.000000*%
%ADD81FreePoly7,90.000000*%
%ADD82FreePoly8,90.000000*%
%ADD83FreePoly9,90.000000*%
%ADD84R,2.400000X2.400000*%
%ADD85R,0.650000X0.400000*%
%ADD86RoundRect,0.235000X-0.940000X-1.465000X0.940000X-1.465000X0.940000X1.465000X-0.940000X1.465000X0*%
%ADD87RoundRect,0.235000X-1.465000X0.940000X-1.465000X-0.940000X1.465000X-0.940000X1.465000X0.940000X0*%
%ADD88R,1.600000X1.600000*%
%ADD89R,1.700000X1.700000*%
%ADD90O,1.700000X1.700000*%
%ADD91C,0.950000*%
G04 APERTURE END LIST*
D10*
X102560000Y-117659588D02*
X191850000Y-117659588D01*
X102570000Y-58359056D02*
X191850000Y-58359056D01*
X196850266Y-112640000D02*
X196850266Y-63400000D01*
X97559734Y-63380000D02*
X97559734Y-93059322D01*
D11*
X124830000Y-114809056D03*
X127030000Y-114809056D03*
X127030000Y-113109056D03*
X124830000Y-113109056D03*
D12*
X168125000Y-113599056D03*
X169675000Y-113599056D03*
D13*
X186760000Y-114509056D03*
D14*
X188410000Y-112959056D03*
X188409665Y-116059056D03*
D15*
X175910000Y-114684056D03*
X175910000Y-116234056D03*
D16*
X187967500Y-90599056D03*
X187967500Y-89649056D03*
X187967500Y-88699056D03*
X185692500Y-88699056D03*
X185692500Y-89649056D03*
X185692500Y-90599056D03*
D15*
X185170000Y-107364056D03*
X185170000Y-108914056D03*
D17*
X164635000Y-86834056D03*
X163085000Y-86834056D03*
D18*
X191310000Y-61509056D03*
X192012944Y-59812000D03*
X192012944Y-63206112D03*
X193710000Y-59109056D03*
D19*
X193710000Y-61509056D03*
D18*
X193710000Y-63909056D03*
X195407056Y-59812000D03*
X195407056Y-63206112D03*
X196110000Y-61509056D03*
D15*
X131910000Y-85334056D03*
X131910000Y-86884056D03*
D17*
X122675000Y-77601556D03*
X121125000Y-77601556D03*
D12*
X151235000Y-71679056D03*
X152785000Y-71679056D03*
D15*
X125320000Y-76271556D03*
X125320000Y-77821556D03*
D17*
X183937500Y-103429056D03*
X182387500Y-103429056D03*
D20*
X123050000Y-110946556D03*
X123550000Y-110946556D03*
X124050000Y-110946556D03*
X124550000Y-110946556D03*
X125050000Y-110946556D03*
X125550000Y-110946556D03*
D21*
X126237500Y-110259056D03*
X126237500Y-109759056D03*
X126237500Y-109259056D03*
X126237500Y-108759056D03*
X126237500Y-108259056D03*
X126237500Y-107759056D03*
D20*
X125550000Y-107071556D03*
X125050000Y-107071556D03*
X124550000Y-107071556D03*
X124050000Y-107071556D03*
X123550000Y-107071556D03*
X123050000Y-107071556D03*
D21*
X122362500Y-107759056D03*
X122362500Y-108259056D03*
X122362500Y-108759056D03*
X122362500Y-109259056D03*
X122362500Y-109759056D03*
X122362500Y-110259056D03*
D22*
X124300000Y-109009056D03*
D23*
X178085000Y-81834056D03*
X178085000Y-80284056D03*
D12*
X119025000Y-106409056D03*
X120575000Y-106409056D03*
X177885000Y-83109056D03*
X179435000Y-83109056D03*
D24*
X147300000Y-64929056D03*
X141800000Y-64929056D03*
X141800000Y-68129056D03*
X147300000Y-68129056D03*
D17*
X164635000Y-80134056D03*
X163085000Y-80134056D03*
D25*
X177876136Y-112110066D03*
X178229689Y-111756512D03*
X178583243Y-111402959D03*
X178936796Y-111049405D03*
X179290349Y-110695852D03*
X179643903Y-110342299D03*
X179997456Y-109988745D03*
X180351010Y-109635192D03*
D26*
X180351010Y-108662920D03*
X179997456Y-108309367D03*
X179643903Y-107955813D03*
X179290349Y-107602260D03*
X178936796Y-107248707D03*
X178583243Y-106895153D03*
X178229689Y-106541600D03*
X177876136Y-106188046D03*
D25*
X176903864Y-106188046D03*
X176550311Y-106541600D03*
X176196757Y-106895153D03*
X175843204Y-107248707D03*
X175489651Y-107602260D03*
X175136097Y-107955813D03*
X174782544Y-108309367D03*
X174428990Y-108662920D03*
D26*
X174428990Y-109635192D03*
X174782544Y-109988745D03*
X175136097Y-110342299D03*
X175489651Y-110695852D03*
X175843204Y-111049405D03*
X176196757Y-111402959D03*
X176550311Y-111756512D03*
X176903864Y-112110066D03*
D27*
X177390000Y-109149056D03*
D12*
X119025000Y-111609056D03*
X120575000Y-111609056D03*
D28*
X131280000Y-64399056D03*
D29*
X132580000Y-64399056D03*
D15*
X133210000Y-90334056D03*
X133210000Y-91884056D03*
X167660000Y-59809056D03*
X167660000Y-61359056D03*
X113570000Y-81546556D03*
X113570000Y-83096556D03*
D18*
X191310000Y-114509056D03*
X192012944Y-112812000D03*
X192012944Y-116206112D03*
X193710000Y-112109056D03*
D19*
X193710000Y-114509056D03*
D18*
X193710000Y-116909056D03*
X195407056Y-112812000D03*
X195407056Y-116206112D03*
X196110000Y-114509056D03*
D17*
X180760000Y-75199195D03*
X179210000Y-75199195D03*
D30*
X174370000Y-115509056D03*
X174370000Y-113309056D03*
X172670000Y-113309056D03*
X172670000Y-115509056D03*
D23*
X130030000Y-114724056D03*
X130030000Y-113174056D03*
D12*
X168935000Y-62634056D03*
X170485000Y-62634056D03*
D31*
X111795000Y-91209056D03*
X111795000Y-93109056D03*
D32*
X104150000Y-79729056D03*
D33*
X104150000Y-84809056D03*
X104150000Y-89889056D03*
D17*
X113755000Y-111939056D03*
X112205000Y-111939056D03*
D34*
X114830000Y-67999056D03*
X114830000Y-73599056D03*
D17*
X120575000Y-112909056D03*
X119025000Y-112909056D03*
D23*
X176785000Y-81834056D03*
X176785000Y-80284056D03*
D15*
X166160000Y-59809056D03*
X166160000Y-61359056D03*
D12*
X120455000Y-66299056D03*
X122005000Y-66299056D03*
D15*
X153560000Y-67734056D03*
X153560000Y-69284056D03*
D23*
X118930000Y-65499056D03*
X118930000Y-63949056D03*
D35*
X105065000Y-115419056D03*
X108015000Y-115419056D03*
D23*
X150120000Y-109004056D03*
X150120000Y-107454056D03*
D12*
X182010000Y-67359056D03*
X183560000Y-67359056D03*
D36*
X109530000Y-70034056D03*
D37*
X103230000Y-70034056D03*
D38*
X106630000Y-74834056D03*
D17*
X130210000Y-110629056D03*
X128660000Y-110629056D03*
D39*
X180230000Y-99674056D03*
X180230000Y-96724056D03*
D40*
X159985000Y-63446556D03*
X159335000Y-63446556D03*
X158685000Y-63446556D03*
X158035000Y-63446556D03*
X157385000Y-63446556D03*
X156735000Y-63446556D03*
X156085000Y-63446556D03*
D41*
X155047500Y-64484056D03*
X155047500Y-65134056D03*
X155047500Y-65784056D03*
X155047500Y-66434056D03*
X155047500Y-67084056D03*
X155047500Y-67734056D03*
X155047500Y-68384056D03*
D40*
X156085000Y-69421556D03*
X156735000Y-69421556D03*
X157385000Y-69421556D03*
X158035000Y-69421556D03*
X158685000Y-69421556D03*
X159335000Y-69421556D03*
X159985000Y-69421556D03*
D41*
X161022500Y-68384056D03*
X161022500Y-67734056D03*
X161022500Y-67084056D03*
X161022500Y-66434056D03*
X161022500Y-65784056D03*
X161022500Y-65134056D03*
X161022500Y-64484056D03*
D42*
X158035000Y-66434056D03*
D17*
X180760000Y-69984056D03*
X179210000Y-69984056D03*
D12*
X168935000Y-63934056D03*
X170485000Y-63934056D03*
D43*
X183242500Y-94869056D03*
X187292500Y-94869056D03*
D15*
X175485000Y-80284056D03*
X175485000Y-81834056D03*
D44*
X132755000Y-67249056D03*
X129805000Y-67249056D03*
D17*
X167685000Y-63934056D03*
X166135000Y-63934056D03*
X130325000Y-92034056D03*
X128775000Y-92034056D03*
D45*
X144051992Y-106191048D03*
X145148008Y-107287064D03*
D12*
X182010000Y-68684056D03*
X183560000Y-68684056D03*
D46*
X111070000Y-83046556D03*
X111070000Y-87096556D03*
D12*
X139435000Y-71909056D03*
X140985000Y-71909056D03*
X163335000Y-63934056D03*
X164885000Y-63934056D03*
D17*
X180735000Y-67359056D03*
X179185000Y-67359056D03*
D23*
X170310000Y-75055000D03*
X170310000Y-73505000D03*
X178510000Y-116234056D03*
X178510000Y-114684056D03*
D15*
X171735000Y-69884056D03*
X171735000Y-71434056D03*
X138110000Y-71884056D03*
X138110000Y-73434056D03*
D12*
X148085000Y-103284056D03*
X149635000Y-103284056D03*
X143385000Y-104589056D03*
X144935000Y-104589056D03*
D15*
X168960000Y-59809056D03*
X168960000Y-61359056D03*
D44*
X127820000Y-83471556D03*
X124870000Y-83471556D03*
D47*
X148435000Y-60934056D03*
X140635000Y-60934056D03*
D23*
X160960000Y-61359056D03*
X160960000Y-59809056D03*
D15*
X167260000Y-67084056D03*
X167260000Y-68634056D03*
X185170000Y-110224056D03*
X185170000Y-111774056D03*
D23*
X149590000Y-68734056D03*
X149590000Y-67184056D03*
D48*
X158910000Y-75934056D03*
X158410000Y-75934056D03*
X157910000Y-75934056D03*
X157410000Y-75934056D03*
X156910000Y-75934056D03*
X156410000Y-75934056D03*
X155910000Y-75934056D03*
X155410000Y-75934056D03*
X154910000Y-75934056D03*
X154410000Y-75934056D03*
X153910000Y-75934056D03*
X153410000Y-75934056D03*
X152910000Y-75934056D03*
X152410000Y-75934056D03*
X151910000Y-75934056D03*
X151410000Y-75934056D03*
X150910000Y-75934056D03*
X150410000Y-75934056D03*
X149910000Y-75934056D03*
X149410000Y-75934056D03*
X148910000Y-75934056D03*
X148410000Y-75934056D03*
X147910000Y-75934056D03*
X147410000Y-75934056D03*
X146910000Y-75934056D03*
X146410000Y-75934056D03*
X145910000Y-75934056D03*
X145410000Y-75934056D03*
X144910000Y-75934056D03*
X144410000Y-75934056D03*
X143910000Y-75934056D03*
X143410000Y-75934056D03*
X142910000Y-75934056D03*
X142410000Y-75934056D03*
X141910000Y-75934056D03*
X141410000Y-75934056D03*
X140910000Y-75934056D03*
X140410000Y-75934056D03*
X139910000Y-75934056D03*
X139410000Y-75934056D03*
X138910000Y-75934056D03*
X138410000Y-75934056D03*
X137910000Y-75934056D03*
X137410000Y-75934056D03*
D49*
X135485000Y-77859056D03*
X135485000Y-78359056D03*
X135485000Y-78859056D03*
X135485000Y-79359056D03*
X135485000Y-79859056D03*
X135485000Y-80359056D03*
X135485000Y-80859056D03*
X135485000Y-81359056D03*
X135485000Y-81859056D03*
X135485000Y-82359056D03*
X135485000Y-82859056D03*
X135485000Y-83359056D03*
X135485000Y-83859056D03*
X135485000Y-84359056D03*
X135485000Y-84859056D03*
X135485000Y-85359056D03*
X135485000Y-85859056D03*
X135485000Y-86359056D03*
X135485000Y-86859056D03*
X135485000Y-87359056D03*
X135485000Y-87859056D03*
X135485000Y-88359056D03*
X135485000Y-88859056D03*
X135485000Y-89359056D03*
X135485000Y-89859056D03*
X135485000Y-90359056D03*
X135485000Y-90859056D03*
X135485000Y-91359056D03*
X135485000Y-91859056D03*
X135485000Y-92359056D03*
X135485000Y-92859056D03*
X135485000Y-93359056D03*
X135485000Y-93859056D03*
X135485000Y-94359056D03*
X135485000Y-94859056D03*
X135485000Y-95359056D03*
X135485000Y-95859056D03*
X135485000Y-96359056D03*
X135485000Y-96859056D03*
X135485000Y-97359056D03*
X135485000Y-97859056D03*
X135485000Y-98359056D03*
X135485000Y-98859056D03*
X135485000Y-99359056D03*
D48*
X137410000Y-101284056D03*
X137910000Y-101284056D03*
X138410000Y-101284056D03*
X138910000Y-101284056D03*
X139410000Y-101284056D03*
X139910000Y-101284056D03*
X140410000Y-101284056D03*
X140910000Y-101284056D03*
X141410000Y-101284056D03*
X141910000Y-101284056D03*
X142410000Y-101284056D03*
X142910000Y-101284056D03*
X143410000Y-101284056D03*
X143910000Y-101284056D03*
X144410000Y-101284056D03*
X144910000Y-101284056D03*
X145410000Y-101284056D03*
X145910000Y-101284056D03*
X146410000Y-101284056D03*
X146910000Y-101284056D03*
X147410000Y-101284056D03*
X147910000Y-101284056D03*
X148410000Y-101284056D03*
X148910000Y-101284056D03*
X149410000Y-101284056D03*
X149910000Y-101284056D03*
X150410000Y-101284056D03*
X150910000Y-101284056D03*
X151410000Y-101284056D03*
X151910000Y-101284056D03*
X152410000Y-101284056D03*
X152910000Y-101284056D03*
X153410000Y-101284056D03*
X153910000Y-101284056D03*
X154410000Y-101284056D03*
X154910000Y-101284056D03*
X155410000Y-101284056D03*
X155910000Y-101284056D03*
X156410000Y-101284056D03*
X156910000Y-101284056D03*
X157410000Y-101284056D03*
X157910000Y-101284056D03*
X158410000Y-101284056D03*
X158910000Y-101284056D03*
D49*
X160835000Y-99359056D03*
X160835000Y-98859056D03*
X160835000Y-98359056D03*
X160835000Y-97859056D03*
X160835000Y-97359056D03*
X160835000Y-96859056D03*
X160835000Y-96359056D03*
X160835000Y-95859056D03*
X160835000Y-95359056D03*
X160835000Y-94859056D03*
X160835000Y-94359056D03*
X160835000Y-93859056D03*
X160835000Y-93359056D03*
X160835000Y-92859056D03*
X160835000Y-92359056D03*
X160835000Y-91859056D03*
X160835000Y-91359056D03*
X160835000Y-90859056D03*
X160835000Y-90359056D03*
X160835000Y-89859056D03*
X160835000Y-89359056D03*
X160835000Y-88859056D03*
X160835000Y-88359056D03*
X160835000Y-87859056D03*
X160835000Y-87359056D03*
X160835000Y-86859056D03*
X160835000Y-86359056D03*
X160835000Y-85859056D03*
X160835000Y-85359056D03*
X160835000Y-84859056D03*
X160835000Y-84359056D03*
X160835000Y-83859056D03*
X160835000Y-83359056D03*
X160835000Y-82859056D03*
X160835000Y-82359056D03*
X160835000Y-81859056D03*
X160835000Y-81359056D03*
X160835000Y-80859056D03*
X160835000Y-80359056D03*
X160835000Y-79859056D03*
X160835000Y-79359056D03*
X160835000Y-78859056D03*
X160835000Y-78359056D03*
X160835000Y-77859056D03*
D17*
X174635000Y-59834056D03*
X173085000Y-59834056D03*
X164885000Y-65809056D03*
X163335000Y-65809056D03*
D15*
X125550000Y-103134056D03*
X125550000Y-104684056D03*
D12*
X128660000Y-107969056D03*
X130210000Y-107969056D03*
D15*
X164660000Y-67084056D03*
X164660000Y-68634056D03*
D12*
X182010000Y-69984056D03*
X183560000Y-69984056D03*
D17*
X152815000Y-112009056D03*
X151265000Y-112009056D03*
D23*
X177210000Y-116234056D03*
X177210000Y-114684056D03*
D17*
X129555000Y-63524056D03*
X128005000Y-63524056D03*
D50*
X126775000Y-97179056D03*
X126775000Y-95909056D03*
X126775000Y-94639056D03*
X126775000Y-93369056D03*
X121825000Y-93369056D03*
X121825000Y-94639056D03*
X121825000Y-95909056D03*
X121825000Y-97179056D03*
D18*
X98310000Y-61509056D03*
X99012944Y-59812000D03*
X99012944Y-63206112D03*
X100710000Y-59109056D03*
D19*
X100710000Y-61509056D03*
D18*
X100710000Y-63909056D03*
X102407056Y-59812000D03*
X102407056Y-63206112D03*
X103110000Y-61509056D03*
D17*
X187600000Y-100379056D03*
X186050000Y-100379056D03*
D44*
X132755000Y-70499056D03*
X129805000Y-70499056D03*
D51*
X111470000Y-61479056D03*
X106470000Y-60279056D03*
D52*
X145140000Y-115786556D03*
X147040000Y-115786556D03*
X146090000Y-113511556D03*
D43*
X122125000Y-99499056D03*
X126175000Y-99499056D03*
D12*
X163085000Y-84234056D03*
X164635000Y-84234056D03*
D53*
X179998008Y-105747064D03*
X178901992Y-104651048D03*
D15*
X122950000Y-103134056D03*
X122950000Y-104684056D03*
D13*
X186760000Y-61509056D03*
D14*
X188410000Y-59959056D03*
X188409665Y-63059056D03*
D23*
X162260000Y-61359056D03*
X162260000Y-59809056D03*
D17*
X113755000Y-113284056D03*
X112205000Y-113284056D03*
D12*
X136585000Y-103259056D03*
X138135000Y-103259056D03*
D15*
X175635000Y-69884056D03*
X175635000Y-71434056D03*
D17*
X183937500Y-100829056D03*
X182387500Y-100829056D03*
D23*
X118930000Y-62499056D03*
X118930000Y-60949056D03*
D17*
X130325000Y-93324056D03*
X128775000Y-93324056D03*
D54*
X177722500Y-65609056D03*
X177722500Y-63709056D03*
X175447500Y-64659056D03*
D55*
X191870000Y-93039056D03*
X191870000Y-87259056D03*
D56*
X190345000Y-93399056D03*
X190345000Y-92599056D03*
D57*
X190345000Y-91399056D03*
X190345000Y-90399056D03*
X190345000Y-89899056D03*
X190345000Y-88899056D03*
D56*
X190345000Y-87699056D03*
X190345000Y-86899056D03*
X190345000Y-86899056D03*
X190345000Y-87699056D03*
D57*
X190345000Y-88399056D03*
X190345000Y-89399056D03*
X190345000Y-90899056D03*
X190345000Y-91899056D03*
D56*
X190345000Y-92599056D03*
X190345000Y-93399056D03*
D58*
X191340000Y-94469056D03*
D59*
X195520000Y-94469056D03*
D58*
X191340000Y-85829056D03*
D59*
X195520000Y-85829056D03*
D15*
X180110000Y-59984056D03*
X180110000Y-61534056D03*
X126850000Y-103134056D03*
X126850000Y-104684056D03*
D23*
X163560000Y-61359056D03*
X163560000Y-59809056D03*
D17*
X183937500Y-102129056D03*
X182387500Y-102129056D03*
D55*
X191850000Y-106169056D03*
X191850000Y-100389056D03*
D56*
X190325000Y-106529056D03*
X190325000Y-105729056D03*
D57*
X190325000Y-104529056D03*
X190325000Y-103529056D03*
X190325000Y-103029056D03*
X190325000Y-102029056D03*
D56*
X190325000Y-100829056D03*
X190325000Y-100029056D03*
X190325000Y-100029056D03*
X190325000Y-100829056D03*
D57*
X190325000Y-101529056D03*
X190325000Y-102529056D03*
X190325000Y-104029056D03*
X190325000Y-105029056D03*
D56*
X190325000Y-105729056D03*
X190325000Y-106529056D03*
D58*
X191320000Y-107599056D03*
D59*
X195500000Y-107599056D03*
D58*
X191320000Y-98959056D03*
D59*
X195500000Y-98959056D03*
D12*
X143385000Y-103284056D03*
X144935000Y-103284056D03*
D15*
X120350000Y-103134056D03*
X120350000Y-104684056D03*
D35*
X109835000Y-63899056D03*
X112785000Y-63899056D03*
D60*
X175221992Y-105187064D03*
X176318008Y-104091048D03*
D12*
X166135000Y-62634056D03*
X167685000Y-62634056D03*
D15*
X156560000Y-109174056D03*
X156560000Y-110724056D03*
D12*
X141010000Y-70009056D03*
X142560000Y-70009056D03*
X148085000Y-104584056D03*
X149635000Y-104584056D03*
D17*
X183450000Y-79784056D03*
X181900000Y-79784056D03*
X122675000Y-78901556D03*
X121125000Y-78901556D03*
D23*
X112020000Y-80871556D03*
X112020000Y-79321556D03*
D15*
X133210000Y-85334056D03*
X133210000Y-86884056D03*
D17*
X120575000Y-114209056D03*
X119025000Y-114209056D03*
D15*
X184240000Y-114684056D03*
X184240000Y-116234056D03*
D17*
X130325000Y-94624056D03*
X128775000Y-94624056D03*
D12*
X139435000Y-73234056D03*
X140985000Y-73234056D03*
D23*
X148820000Y-109004056D03*
X148820000Y-107454056D03*
D17*
X152785000Y-73409056D03*
X151235000Y-73409056D03*
D23*
X159880000Y-110724056D03*
X159880000Y-109174056D03*
D15*
X179210000Y-64084056D03*
X179210000Y-65634056D03*
D17*
X130210000Y-109269056D03*
X128660000Y-109269056D03*
D15*
X183860000Y-107364056D03*
X183860000Y-108914056D03*
D17*
X170520000Y-103524056D03*
X168970000Y-103524056D03*
D12*
X115055000Y-113289056D03*
X116605000Y-113289056D03*
D61*
X116445000Y-91059056D03*
X113495000Y-91059056D03*
D12*
X170235000Y-59834056D03*
X171785000Y-59834056D03*
D17*
X184025000Y-90329056D03*
X182475000Y-90329056D03*
D12*
X172235000Y-64459056D03*
X173785000Y-64459056D03*
D17*
X170525000Y-104839056D03*
X168975000Y-104839056D03*
D15*
X164860000Y-59809056D03*
X164860000Y-61359056D03*
D12*
X152235000Y-62984056D03*
X153785000Y-62984056D03*
D62*
X149590000Y-110859056D03*
X146790000Y-110859056D03*
D15*
X182560000Y-110229056D03*
X182560000Y-111779056D03*
D12*
X182010000Y-71284056D03*
X183560000Y-71284056D03*
D44*
X127815000Y-86671556D03*
X124865000Y-86671556D03*
D15*
X121650000Y-103134056D03*
X121650000Y-104684056D03*
D12*
X179210000Y-72584056D03*
X180760000Y-72584056D03*
D23*
X155710000Y-105384056D03*
X155710000Y-103834056D03*
D35*
X109615000Y-115419056D03*
X112565000Y-115419056D03*
D63*
X163050000Y-106479056D03*
X163050000Y-107749056D03*
X163050000Y-109019056D03*
X163050000Y-110289056D03*
X170250000Y-110289056D03*
X170250000Y-109019056D03*
X170250000Y-107749056D03*
X170250000Y-106479056D03*
D16*
X187962500Y-103729056D03*
X187962500Y-102779056D03*
X187962500Y-101829056D03*
X185687500Y-101829056D03*
X185687500Y-102779056D03*
X185687500Y-103729056D03*
D11*
X146460000Y-70059056D03*
X144260000Y-70059056D03*
X144260000Y-71759056D03*
X146460000Y-71759056D03*
D17*
X164635000Y-97859056D03*
X163085000Y-97859056D03*
D12*
X163085000Y-85534056D03*
X164635000Y-85534056D03*
X182010000Y-72584056D03*
X183560000Y-72584056D03*
X131685000Y-95059056D03*
X133235000Y-95059056D03*
X128775000Y-98524056D03*
X130325000Y-98524056D03*
D44*
X127820000Y-80271556D03*
X124870000Y-80271556D03*
D15*
X132680000Y-60899056D03*
X132680000Y-62449056D03*
D23*
X163110000Y-92384056D03*
X163110000Y-90834056D03*
D53*
X181978008Y-107727064D03*
X180881992Y-106631048D03*
D28*
X127145000Y-76971556D03*
D29*
X128445000Y-76971556D03*
D23*
X169010000Y-75055000D03*
X169010000Y-73505000D03*
D64*
X180300000Y-92014056D03*
X180300000Y-94964056D03*
D17*
X180760000Y-73884056D03*
X179210000Y-73884056D03*
D12*
X119025000Y-109659056D03*
X120575000Y-109659056D03*
D17*
X119750000Y-99499056D03*
X118200000Y-99499056D03*
D23*
X131330000Y-114724056D03*
X131330000Y-113174056D03*
D11*
X153210000Y-61434056D03*
X155410000Y-61434056D03*
X155410000Y-59734056D03*
X153210000Y-59734056D03*
D15*
X165960000Y-67084056D03*
X165960000Y-68634056D03*
D23*
X179410000Y-81834056D03*
X179410000Y-80284056D03*
D12*
X166135000Y-65809056D03*
X167685000Y-65809056D03*
D15*
X161220000Y-109174056D03*
X161220000Y-110724056D03*
D61*
X108015000Y-113294056D03*
X105065000Y-113294056D03*
D15*
X183860000Y-110224056D03*
X183860000Y-111774056D03*
D23*
X180040000Y-116234056D03*
X180040000Y-114684056D03*
D12*
X128775000Y-97224056D03*
X130325000Y-97224056D03*
D61*
X116445000Y-93259056D03*
X113495000Y-93259056D03*
D65*
X106472500Y-97014056D03*
X106472500Y-108444056D03*
D66*
X112832500Y-98289056D03*
D67*
X115372500Y-99549056D03*
X112832500Y-100829056D03*
X115372500Y-102089056D03*
X112832500Y-103369056D03*
X115372500Y-104629056D03*
X112832500Y-105909056D03*
X115372500Y-107169056D03*
X101572500Y-96104056D03*
X101572500Y-98644056D03*
X101572500Y-106814056D03*
X101572500Y-109354056D03*
D68*
X109522500Y-94984056D03*
X109522500Y-110474056D03*
D23*
X151420000Y-109004056D03*
X151420000Y-107454056D03*
X147520000Y-109004056D03*
X147520000Y-107454056D03*
D12*
X128005000Y-60924056D03*
X129555000Y-60924056D03*
D18*
X98310000Y-114509056D03*
X99012944Y-112812000D03*
X99012944Y-116206112D03*
X100710000Y-112109056D03*
D19*
X100710000Y-114509056D03*
D18*
X100710000Y-116909056D03*
X102407056Y-112812000D03*
X102407056Y-116206112D03*
X103110000Y-114509056D03*
D17*
X119575000Y-89774056D03*
X118025000Y-89774056D03*
D23*
X159660000Y-61359056D03*
X159660000Y-59809056D03*
D12*
X179210000Y-68684056D03*
X180760000Y-68684056D03*
D23*
X157010000Y-105384056D03*
X157010000Y-103834056D03*
D17*
X180760000Y-71284056D03*
X179210000Y-71284056D03*
D50*
X125955000Y-64779056D03*
X125955000Y-63509056D03*
X125955000Y-62239056D03*
X125955000Y-60969056D03*
X121005000Y-60969056D03*
X121005000Y-62239056D03*
X121005000Y-63509056D03*
X121005000Y-64779056D03*
D69*
X123480000Y-62874056D03*
D51*
X195240000Y-68819056D03*
X188240000Y-68819056D03*
D70*
X190640000Y-71119056D03*
X193640000Y-71119056D03*
X185530000Y-66519056D03*
X186640000Y-71119056D03*
D23*
X166535000Y-71434056D03*
X166535000Y-69884056D03*
D15*
X163360000Y-67084056D03*
X163360000Y-68634056D03*
D12*
X128005000Y-64824056D03*
X129555000Y-64824056D03*
X148235000Y-71679056D03*
X149785000Y-71679056D03*
D23*
X112020000Y-77871556D03*
X112020000Y-76321556D03*
D12*
X119025000Y-108359056D03*
X120575000Y-108359056D03*
D39*
X186870000Y-110464056D03*
X186870000Y-107514056D03*
D43*
X183242500Y-98079056D03*
X187292500Y-98079056D03*
D17*
X120575000Y-101799056D03*
X119025000Y-101799056D03*
D23*
X124020000Y-77821556D03*
X124020000Y-76271556D03*
X119050000Y-104684056D03*
X119050000Y-103134056D03*
D17*
X119575000Y-91074056D03*
X118025000Y-91074056D03*
D15*
X142310000Y-71884056D03*
X142310000Y-73434056D03*
D23*
X134870000Y-70710000D03*
X134870000Y-69160000D03*
D12*
X168125000Y-114899056D03*
X169675000Y-114899056D03*
D71*
X115360000Y-64426556D03*
X115360000Y-60376556D03*
D23*
X128730000Y-114724056D03*
X128730000Y-113174056D03*
D17*
X129555000Y-62224056D03*
X128005000Y-62224056D03*
D72*
X171660000Y-82709056D03*
X173960000Y-83209056D03*
X171660000Y-83709056D03*
X173960000Y-84209056D03*
X171660000Y-84709056D03*
X173960000Y-85209056D03*
X171660000Y-85709056D03*
X173960000Y-86209056D03*
X171660000Y-86709056D03*
X173960000Y-87209056D03*
X171660000Y-87709056D03*
X173960000Y-88209056D03*
X171660000Y-88709056D03*
X173960000Y-89209056D03*
X171660000Y-89709056D03*
X173960000Y-90209056D03*
X171660000Y-90709056D03*
X173960000Y-91209056D03*
X171660000Y-91709056D03*
X173960000Y-92209056D03*
X171660000Y-92709056D03*
X173960000Y-93209056D03*
X171660000Y-93709056D03*
X173960000Y-94209056D03*
X171660000Y-94709056D03*
X173960000Y-95209056D03*
X171660000Y-95709056D03*
X173960000Y-96209056D03*
X171660000Y-96709056D03*
X173960000Y-97209056D03*
X171660000Y-97709056D03*
X173960000Y-98209056D03*
X171660000Y-98709056D03*
X173960000Y-99209056D03*
X171660000Y-99709056D03*
X173960000Y-100209056D03*
X171660000Y-100709056D03*
X173960000Y-101209056D03*
X171660000Y-101709056D03*
X173960000Y-102209056D03*
D73*
X172810000Y-81059056D03*
X172810000Y-103859056D03*
D17*
X169675000Y-116199056D03*
X168125000Y-116199056D03*
X176960000Y-67309056D03*
X175410000Y-67309056D03*
D15*
X124250000Y-103134056D03*
X124250000Y-104684056D03*
D17*
X149710000Y-70009056D03*
X148160000Y-70009056D03*
D15*
X170435000Y-69884056D03*
X170435000Y-71434056D03*
D74*
X173785000Y-77234056D03*
D75*
X174235000Y-77234056D03*
X174685000Y-77234056D03*
X175135000Y-77234056D03*
X175585000Y-77234056D03*
X176035000Y-77234056D03*
D76*
X176485000Y-77234056D03*
D77*
X177085000Y-76634056D03*
D78*
X177085000Y-76184056D03*
X177085000Y-75734056D03*
X177085000Y-75284056D03*
X177085000Y-74834056D03*
X177085000Y-74384056D03*
D79*
X177085000Y-73934056D03*
D80*
X176485000Y-73334056D03*
D75*
X176035000Y-73334056D03*
X175585000Y-73334056D03*
X175135000Y-73334056D03*
X174685000Y-73334056D03*
X174235000Y-73334056D03*
D81*
X173785000Y-73334056D03*
D82*
X173185000Y-73934056D03*
D78*
X173185000Y-74384056D03*
X173185000Y-74834056D03*
X173185000Y-75284056D03*
X173185000Y-75734056D03*
X173185000Y-76184056D03*
D83*
X173185000Y-76634056D03*
D84*
X175135000Y-75284056D03*
D17*
X173785000Y-65809056D03*
X172235000Y-65809056D03*
D15*
X176010000Y-59984056D03*
X176010000Y-61534056D03*
D85*
X172060000Y-61509056D03*
X172060000Y-62159056D03*
X172060000Y-62809056D03*
X173960000Y-62809056D03*
X173960000Y-62159056D03*
X173960000Y-61509056D03*
D17*
X155665000Y-112009056D03*
X154115000Y-112009056D03*
X184025000Y-88979056D03*
X182475000Y-88979056D03*
D15*
X133210000Y-79304056D03*
X133210000Y-80854056D03*
X131910000Y-90334056D03*
X131910000Y-91884056D03*
D17*
X187625000Y-92069056D03*
X186075000Y-92069056D03*
D15*
X149590000Y-64374056D03*
X149590000Y-65924056D03*
D23*
X157910000Y-110724056D03*
X157910000Y-109174056D03*
D15*
X167835000Y-69884056D03*
X167835000Y-71434056D03*
D86*
X116445000Y-84459056D03*
X122495000Y-84459056D03*
D17*
X182915000Y-114709056D03*
X181365000Y-114709056D03*
D12*
X128775000Y-90734056D03*
X130325000Y-90734056D03*
D15*
X174335000Y-69884056D03*
X174335000Y-71434056D03*
D47*
X148740000Y-114799056D03*
X156540000Y-114799056D03*
D44*
X132755000Y-73749056D03*
X129805000Y-73749056D03*
D12*
X177285000Y-61509056D03*
X178835000Y-61509056D03*
D17*
X130325000Y-95924056D03*
X128775000Y-95924056D03*
X187605000Y-87239056D03*
X186055000Y-87239056D03*
D39*
X183010000Y-84234056D03*
X183010000Y-81284056D03*
D46*
X120055000Y-68911556D03*
X120055000Y-72961556D03*
D50*
X119045000Y-80156556D03*
X119045000Y-78886556D03*
X119045000Y-77616556D03*
X119045000Y-76346556D03*
X114095000Y-76346556D03*
X114095000Y-77616556D03*
X114095000Y-78886556D03*
X114095000Y-80156556D03*
D69*
X116570000Y-78251556D03*
D17*
X164635000Y-82934056D03*
X163085000Y-82934056D03*
D87*
X125330000Y-67874056D03*
X125330000Y-73924056D03*
D15*
X173035000Y-69884056D03*
X173035000Y-71434056D03*
D23*
X158360000Y-61359056D03*
X158360000Y-59809056D03*
D17*
X176960000Y-68609056D03*
X175410000Y-68609056D03*
X183450000Y-78484056D03*
X181900000Y-78484056D03*
X187600000Y-105179056D03*
X186050000Y-105179056D03*
D12*
X131685000Y-96359056D03*
X133235000Y-96359056D03*
D47*
X158600000Y-114799056D03*
X166400000Y-114799056D03*
D15*
X131180000Y-60899056D03*
X131180000Y-62449056D03*
D23*
X152720000Y-109004056D03*
X152720000Y-107454056D03*
D46*
X118975000Y-93324056D03*
X118975000Y-97374056D03*
D17*
X145685000Y-73409056D03*
X144135000Y-73409056D03*
D12*
X168935000Y-65809056D03*
X170485000Y-65809056D03*
D15*
X123130000Y-113184056D03*
X123130000Y-114734056D03*
D12*
X168125000Y-112289056D03*
X169675000Y-112289056D03*
X121125000Y-76301556D03*
X122675000Y-76301556D03*
D88*
X135290000Y-110569056D03*
D51*
X141790000Y-110569056D03*
D12*
X163060000Y-81534056D03*
X164610000Y-81534056D03*
X166160000Y-81534056D03*
D15*
X152260000Y-67734056D03*
X152260000Y-69284056D03*
D89*
X185990000Y-75819056D03*
D90*
X188530000Y-75819056D03*
X185990000Y-78359056D03*
X188530000Y-78359056D03*
X185990000Y-80899056D03*
X188530000Y-80899056D03*
D17*
X149785000Y-73409056D03*
X148235000Y-73409056D03*
D15*
X171145000Y-113624056D03*
X171145000Y-115174056D03*
X134870000Y-66315000D03*
X134870000Y-67865000D03*
D43*
X122100000Y-91074056D03*
X126150000Y-91074056D03*
D23*
X157060000Y-61359056D03*
X157060000Y-59809056D03*
D15*
X176935000Y-69884056D03*
X176935000Y-71434056D03*
X169135000Y-69884056D03*
X169135000Y-71434056D03*
D12*
X115055000Y-111939056D03*
X116605000Y-111939056D03*
X121125000Y-80201556D03*
X122675000Y-80201556D03*
D15*
X131535000Y-107694056D03*
X131535000Y-109244056D03*
X131535000Y-110794056D03*
D12*
X163335000Y-62634056D03*
X164885000Y-62634056D03*
D17*
X130325000Y-99824056D03*
X128775000Y-99824056D03*
D91*
X157610000Y-113056556D03*
X149610000Y-113056556D03*
M02*
