M48
; DRILL file {KiCad 7.0.1-3b83917a11~172~ubuntu22.10.1} date Thứ ba, 21 Tháng 3 Năm 2023 16:32:12 +07
; FORMAT={-:-/ absolute / metric / decimal}
; #@! TF.CreationDate,2023-03-21T16:32:12+07:00
; #@! TF.GenerationSoftware,Kicad,Pcbnew,7.0.1-3b83917a11~172~ubuntu22.10.1
; #@! TF.FileFunction,Plated,1,2,PTH
FMAT,2
METRIC
; #@! TA.AperFunction,Plated,PTH,ViaDrill
T1C0.300
; #@! TA.AperFunction,Plated,PTH,ComponentDrill
T2C0.300
; #@! TA.AperFunction,Plated,PTH,ViaDrill
T3C0.400
; #@! TA.AperFunction,Plated,PTH,ComponentDrill
T4C0.400
; #@! TA.AperFunction,Plated,PTH,ViaDrill
T5C0.500
; #@! TA.AperFunction,Plated,PTH,ComponentDrill
T6C0.500
; #@! TA.AperFunction,Plated,PTH,ComponentDrill
T7C0.600
; #@! TA.AperFunction,Plated,PTH,ComponentDrill
T8C0.800
; #@! TA.AperFunction,Plated,PTH,ComponentDrill
T9C0.900
; #@! TA.AperFunction,Plated,PTH,ComponentDrill
T10C1.000
; #@! TA.AperFunction,Plated,PTH,ComponentDrill
T11C1.020
; #@! TA.AperFunction,Plated,PTH,ComponentDrill
T12C1.300
; #@! TA.AperFunction,Plated,PTH,ComponentDrill
T13C1.630
; #@! TA.AperFunction,Plated,PTH,ComponentDrill
T14C3.200
%
G90
G05
T1
X112.67Y-79.347
X118.4Y-103.129
X118.4Y-106.409
X118.4Y-108.359
X118.4Y-109.659
X118.4Y-111.609
X118.4Y-114.209
X119.755Y-64.124
X122.1Y-107.259
X122.1Y-111.259
X122.36Y-113.159
X122.36Y-113.759
X122.82Y-106.379
X123.47Y-78.969
X123.48Y-106.139
X123.975Y-105.619
X127.029Y-110.309
X127.349Y-108.124
X127.61Y-109.91
X127.85Y-107.109
X128.69Y-103.949
X128.98Y-63.524
X129.055Y-65.349
X129.585Y-109.269
X129.585Y-110.629
X129.85Y-103.95
X129.97Y-102.719
X130.33Y-61.524
X130.761Y-105.049
X130.88Y-93.329
X130.89Y-94.189
X130.9Y-95.709
X131.166Y-103.822
X131.339Y-104.5
X131.54Y-81.679
X132.17Y-77.415
X132.195Y-109.239
X132.47Y-78.589
X132.87Y-77.409
X133.48Y-105.12
X134.07Y-82.359
X134.08Y-83.079
X134.97Y-76.229
X135.802Y-76.475
X136.282Y-76.984
X136.51Y-95.359
X136.72Y-82.359
X138.51Y-79.89
X138.575Y-80.624
X139.56Y-77.059
X140.66Y-78.909
X140.91Y-103.059
X141.06Y-79.659
X141.685Y-103.059
X141.785Y-77.235
X142.385Y-103.059
X142.765Y-74.729
X143.61Y-87.809
X143.64Y-94.909
X143.64Y-95.61
X144.26Y-90.459
X144.31Y-88.209
X144.952Y-90.563
X145.11Y-98.859
X145.51Y-90.009
X145.6Y-84.369
X145.86Y-98.859
X145.861Y-74.841
X146.01Y-89.459
X146.361Y-74.334
X146.61Y-98.859
X146.69Y-73.227
X147.235Y-77.284
X147.31Y-98.759
X147.4Y-72.769
X147.61Y-106.509
X147.66Y-82.609
X147.935Y-77.584
X147.96Y-86.559
X148.435Y-106.509
X149.164Y-78.33
X149.26Y-106.509
X149.46Y-98.159
X149.81Y-78.059
X150.09Y-87.659
X150.16Y-74.319
X150.535Y-78.059
X150.87Y-64.889
X150.88Y-65.879
X151.16Y-74.329
X151.285Y-78.059
X151.285Y-106.509
X151.31Y-92.109
X151.37Y-86.92
X151.51Y-91.409
X151.86Y-90.759
X151.97Y-86.92
X152.085Y-106.509
X152.16Y-73.409
X152.26Y-90.109
X152.46Y-84.759
X152.474Y-80.934
X152.57Y-86.92
X152.71Y-81.61
X152.71Y-83.009
X152.71Y-89.409
X152.72Y-82.31
X152.96Y-74.329
X153.55Y-73.749
X153.55Y-74.329
X153.56Y-71.709
X155.11Y-81.009
X155.64Y-87.709
X155.69Y-72.9
X155.75Y-86.899
X155.85Y-107.4
X155.89Y-106.679
X156.06Y-71.909
X156.13Y-99.01
X156.158Y-71.216
X156.35Y-87.39
X156.56Y-110.069
X156.835Y-70.299
X157.58Y-78.879
X157.61Y-97.009
X158.015Y-70.613
X158.335Y-95.809
X158.385Y-97.009
X158.398Y-105.608
X158.63Y-70.229
X158.674Y-74.723
X158.769Y-84.219
X158.835Y-93.909
X158.896Y-94.71
X158.92Y-84.92
X158.998Y-79.822
X159.23Y-74.259
X159.51Y-97.609
X159.53Y-85.31
X159.535Y-80.31
X159.61Y-95.384
X159.61Y-96.209
X160.48Y-71.249
X161.19Y-71.249
X161.22Y-110.079
X161.66Y-76.35
X162.165Y-81.954
X162.36Y-76.35
X162.435Y-96.249
X162.98Y-95.529
X163.05Y-64.87
X163.18Y-74.12
X163.66Y-84.535
X163.66Y-85.235
X163.67Y-64.87
X163.96Y-87.319
X164.08Y-96.299
X164.71Y-95.799
X165.335Y-87.759
X165.335Y-90.009
X165.465Y-60.621
X165.49Y-69.659
X165.77Y-98.079
X165.861Y-99.589
X166.51Y-113.379
X166.633Y-112.499
X167.34Y-87.149
X167.34Y-87.749
X167.36Y-109.019
X167.44Y-89.949
X168.16Y-89.949
X168.56Y-88.159
X169.03Y-114.899
X169.22Y-99.58
X169.79Y-67.739
X169.79Y-68.739
X169.86Y-61.509
X169.885Y-89.184
X169.92Y-96.159
X169.96Y-94.959
X170.4Y-101.75
X170.51Y-95.709
X170.51Y-96.559
X170.533Y-76.391
X170.61Y-83.649
X170.635Y-89.184
X170.64Y-60.689
X170.76Y-97.709
X170.79Y-67.739
X170.79Y-68.739
X171.26Y-82.06
X171.41Y-62.159
X171.574Y-75.876
X171.76Y-73.583
X171.77Y-72.884
X171.79Y-67.739
X171.79Y-68.739
X171.96Y-107.369
X172.506Y-110.581
X172.66Y-96.209
X172.76Y-95.209
X172.79Y-67.739
X172.79Y-68.739
X172.81Y-97.409
X172.86Y-94.359
X173.036Y-110.051
X173.6Y-78.55
X173.66Y-82.529
X174.25Y-67.649
X174.25Y-82.529
X174.28Y-68.429
X174.46Y-81.679
X174.69Y-104.589
X175.01Y-95.089
X175.01Y-91.184
X175.48Y-82.709
X175.495Y-78.139
X175.57Y-113.769
X175.585Y-91.959
X175.61Y-96.969
X175.93Y-83.309
X176.35Y-82.729
X176.79Y-83.309
X176.823Y-78.036
X177.047Y-77.373
X177.42Y-105.609
X177.6Y-78.55
X178.26Y-64.859
X178.87Y-85.279
X179.79Y-85.279
X180.29Y-102.999
X180.54Y-102.329
X180.79Y-85.279
X180.88Y-79.429
X180.88Y-80.129
X181.03Y-108.899
X181.56Y-84.239
X181.56Y-84.979
X181.7Y-89.509
X181.76Y-90.338
X181.76Y-90.338
X183.17Y-108.919
X184.762Y-102.779
X184.81Y-89.649
X188.83Y-89.649
X188.837Y-102.779
T2
X115.97Y-77.252
X115.97Y-78.252
X115.97Y-79.252
X117.17Y-77.252
X117.17Y-78.252
X117.17Y-79.252
X122.88Y-61.874
X122.88Y-62.874
X122.88Y-63.874
X123.35Y-108.059
X123.35Y-109.009
X123.35Y-109.959
X124.08Y-61.874
X124.08Y-62.874
X124.08Y-63.874
X124.3Y-108.059
X124.3Y-109.009
X124.3Y-109.959
X125.25Y-108.059
X125.25Y-109.009
X125.25Y-109.959
X174.335Y-74.484
X174.335Y-75.284
X174.335Y-76.084
X175.135Y-74.484
X175.135Y-75.284
X175.135Y-76.084
X175.935Y-74.484
X175.935Y-75.284
X175.935Y-76.084
T3
X98.2Y-65.179
X98.2Y-66.179
X98.2Y-67.179
X98.2Y-68.199
X98.2Y-69.199
X98.2Y-70.199
X98.2Y-71.199
X98.2Y-72.199
X98.2Y-73.199
X98.2Y-74.179
X98.2Y-77.099
X98.2Y-92.779
X99.41Y-65.179
X99.41Y-66.179
X99.41Y-67.179
X99.41Y-68.199
X99.41Y-69.199
X99.41Y-70.199
X99.41Y-71.199
X99.41Y-72.199
X99.41Y-73.199
X99.41Y-74.179
X99.41Y-77.099
X99.41Y-92.779
X100.59Y-83.499
X100.59Y-84.439
X100.59Y-85.419
X100.59Y-86.359
X100.59Y-87.299
X100.59Y-88.279
X100.59Y-89.279
X100.6Y-79.049
X100.6Y-80.029
X100.6Y-81.029
X100.6Y-90.469
X100.6Y-91.559
X100.6Y-92.769
X101.09Y-81.659
X101.09Y-82.869
X101.1Y-66.389
X101.1Y-77.689
X101.6Y-91.559
X101.6Y-92.769
X102.09Y-81.659
X102.09Y-82.869
X102.1Y-65.179
X102.1Y-66.389
X102.1Y-77.689
X102.58Y-91.559
X102.58Y-92.769
X103.07Y-81.659
X103.07Y-82.869
X103.08Y-65.179
X103.08Y-66.389
X103.08Y-77.689
X103.21Y-58.379
X103.28Y-117.609
X103.52Y-92.769
X104.01Y-81.659
X104.01Y-82.869
X104.02Y-66.389
X104.02Y-77.689
X104.03Y-65.179
X104.21Y-58.379
X104.26Y-117.609
X104.46Y-92.769
X104.95Y-81.659
X104.95Y-82.869
X104.96Y-66.389
X104.96Y-76.479
X104.96Y-77.689
X105.21Y-58.379
X105.24Y-117.609
X105.44Y-91.559
X105.44Y-92.769
X105.67Y-61.889
X105.67Y-62.889
X105.67Y-63.94
X105.67Y-64.94
X105.67Y-68.019
X105.67Y-69.019
X105.67Y-70.019
X105.67Y-71.019
X105.67Y-72.019
X105.93Y-81.659
X105.93Y-82.869
X105.94Y-66.389
X105.94Y-76.479
X105.94Y-77.689
X106.21Y-58.379
X106.24Y-117.609
X106.38Y-91.559
X106.38Y-92.769
X106.87Y-81.659
X106.87Y-82.869
X106.88Y-61.889
X106.88Y-62.889
X106.88Y-63.94
X106.88Y-64.94
X106.88Y-66.389
X106.88Y-68.019
X106.88Y-69.019
X106.88Y-70.019
X106.88Y-71.019
X106.88Y-72.019
X106.88Y-76.479
X106.88Y-77.689
X107.2Y-117.609
X107.21Y-58.379
X107.35Y-92.769
X108.18Y-117.609
X108.21Y-58.379
X108.31Y-85.169
X108.31Y-86.149
X108.32Y-76.479
X108.32Y-77.459
X108.32Y-78.439
X108.32Y-79.439
X108.32Y-80.419
X108.32Y-81.359
X108.32Y-82.299
X108.32Y-83.279
X108.32Y-84.229
X109.16Y-117.609
X109.21Y-58.379
X110.045Y-78.947
X110.045Y-79.772
X110.16Y-117.609
X110.21Y-58.379
X110.895Y-78.947
X110.895Y-79.772
X111.14Y-114.429
X111.14Y-115.369
X111.14Y-116.349
X111.14Y-117.609
X111.21Y-58.379
X111.35Y-63.849
X111.35Y-65.049
X111.35Y-66.029
X111.35Y-67.009
X111.35Y-67.989
X111.35Y-68.969
X111.35Y-69.949
X111.35Y-70.929
X112.08Y-117.609
X112.21Y-58.379
X112.33Y-70.929
X112.57Y-87.18
X112.61Y-81.619
X113.02Y-117.609
X113.21Y-58.379
X113.31Y-70.929
X113.45Y-115.419
X113.55Y-87.18
X113.55Y-88.31
X113.58Y-59.449
X113.58Y-60.429
X113.58Y-61.409
X113.68Y-114.429
X114.0Y-117.609
X114.21Y-58.379
X114.29Y-70.929
X114.53Y-87.18
X114.53Y-88.31
X114.58Y-114.429
X114.63Y-81.619
X114.95Y-117.609
X114.97Y-92.619
X115.21Y-58.379
X115.27Y-70.929
X115.36Y-62.299
X115.47Y-87.19
X115.47Y-88.32
X115.5Y-80.649
X115.89Y-117.619
X115.93Y-112.619
X116.16Y-75.239
X116.21Y-58.379
X116.25Y-70.929
X116.34Y-62.299
X116.42Y-87.19
X116.42Y-88.32
X116.605Y-112.619
X116.88Y-117.619
X117.16Y-75.239
X117.19Y-70.939
X117.21Y-58.379
X117.32Y-59.439
X117.32Y-60.419
X117.32Y-61.399
X117.32Y-62.299
X117.4Y-87.19
X117.4Y-88.32
X117.81Y-100.599
X117.86Y-117.619
X118.14Y-70.939
X118.16Y-75.239
X118.21Y-58.379
X118.34Y-88.32
X118.75Y-100.599
X118.84Y-116.439
X118.84Y-117.619
X118.93Y-66.399
X118.93Y-67.049
X118.99Y-90.419
X119.12Y-70.939
X119.16Y-105.449
X119.21Y-58.379
X119.29Y-88.32
X119.65Y-112.909
X119.7Y-100.599
X119.8Y-105.639
X119.84Y-116.439
X119.84Y-117.619
X119.95Y-114.209
X120.06Y-70.939
X120.21Y-58.379
X120.25Y-90.424
X120.25Y-91.124
X120.27Y-88.32
X120.47Y-98.049
X120.82Y-116.439
X120.82Y-117.619
X121.01Y-70.939
X121.17Y-88.32
X121.21Y-58.379
X121.32Y-102.199
X121.41Y-98.049
X121.41Y-105.639
X121.59Y-81.469
X121.76Y-117.619
X121.8Y-92.609
X121.8Y-116.439
X122.21Y-58.379
X122.3Y-102.199
X122.3Y-103.134
X122.36Y-98.049
X122.48Y-81.469
X122.7Y-117.619
X122.8Y-116.439
X123.08Y-92.619
X123.21Y-58.379
X123.25Y-102.199
X123.33Y-76.279
X123.37Y-80.197
X123.4Y-81.469
X123.68Y-117.619
X123.75Y-101.319
X123.78Y-116.439
X123.87Y-98.049
X123.87Y-99.069
X123.87Y-100.019
X124.21Y-58.379
X124.63Y-117.619
X124.72Y-116.439
X124.81Y-98.049
X125.15Y-92.619
X125.15Y-93.639
X125.15Y-94.579
X125.15Y-95.519
X125.15Y-96.469
X125.21Y-58.379
X125.41Y-89.109
X125.54Y-102.259
X125.57Y-117.629
X125.66Y-116.439
X125.76Y-98.049
X126.21Y-58.379
X126.43Y-82.809
X126.43Y-83.759
X126.43Y-84.739
X126.43Y-85.679
X126.43Y-86.699
X126.43Y-87.649
X126.43Y-88.629
X126.43Y-89.569
X126.44Y-79.909
X126.44Y-80.889
X126.44Y-81.869
X126.55Y-117.629
X126.64Y-116.439
X126.7Y-98.049
X127.21Y-58.379
X127.53Y-117.629
X127.58Y-88.629
X127.58Y-89.569
X127.59Y-116.449
X127.64Y-98.049
X127.82Y-78.389
X128.08Y-66.009
X128.08Y-66.959
X128.08Y-67.939
X128.21Y-58.379
X128.28Y-102.249
X128.53Y-116.449
X128.53Y-117.629
X129.21Y-58.379
X129.34Y-76.489
X129.34Y-77.449
X129.505Y-109.949
X129.51Y-116.449
X129.51Y-117.629
X129.88Y-76.969
X130.21Y-58.379
X130.41Y-76.489
X130.41Y-77.449
X130.48Y-116.449
X130.48Y-117.629
X130.51Y-79.219
X130.52Y-83.249
X130.52Y-84.229
X130.52Y-85.189
X130.52Y-86.119
X130.52Y-87.739
X130.52Y-88.699
X130.52Y-89.629
X130.68Y-114.274
X131.11Y-78.359
X131.21Y-58.379
X131.28Y-97.709
X131.46Y-116.449
X131.46Y-117.629
X131.59Y-67.239
X131.59Y-68.189
X131.59Y-69.169
X131.59Y-70.109
X131.59Y-71.129
X131.97Y-97.309
X132.0Y-99.289
X132.0Y-99.959
X132.0Y-100.639
X132.21Y-58.379
X132.44Y-116.449
X132.44Y-117.629
X132.45Y-112.989
X132.45Y-114.199
X133.16Y-106.769
X133.16Y-107.979
X133.21Y-58.379
X133.43Y-112.989
X133.43Y-114.199
X133.44Y-116.449
X133.44Y-117.629
X133.74Y-73.82
X133.855Y-63.524
X133.855Y-64.374
X133.855Y-65.224
X134.14Y-106.769
X134.14Y-107.979
X134.21Y-58.379
X134.24Y-73.32
X134.37Y-112.989
X134.37Y-114.199
X134.42Y-116.449
X134.42Y-117.629
X134.705Y-63.524
X134.705Y-64.374
X134.705Y-65.224
X134.73Y-72.82
X135.0Y-77.029
X135.08Y-106.769
X135.08Y-107.979
X135.21Y-58.379
X135.31Y-112.989
X135.31Y-114.199
X135.36Y-116.449
X135.36Y-117.629
X135.52Y-103.259
X135.6Y-60.74
X135.9Y-73.439
X136.02Y-106.769
X136.02Y-107.979
X136.21Y-58.379
X136.29Y-112.989
X136.29Y-114.199
X136.3Y-116.449
X136.3Y-117.629
X136.52Y-60.74
X136.54Y-100.239
X136.54Y-101.179
X136.54Y-102.119
X136.61Y-73.449
X136.733Y-91.249
X136.99Y-96.749
X137.0Y-106.769
X137.0Y-107.979
X137.21Y-58.379
X137.24Y-112.999
X137.24Y-114.199
X137.28Y-116.449
X137.28Y-117.629
X137.32Y-73.439
X137.45Y-60.74
X137.51Y-91.24
X137.58Y-95.32
X137.58Y-96.179
X137.96Y-67.119
X137.96Y-68.069
X137.96Y-69.049
X137.96Y-69.989
X137.96Y-70.939
X137.97Y-63.14
X137.97Y-64.219
X137.97Y-65.199
X137.97Y-66.179
X138.18Y-112.999
X138.18Y-114.209
X138.21Y-58.379
X138.23Y-116.459
X138.23Y-117.629
X138.84Y-99.879
X139.16Y-112.999
X139.16Y-114.209
X139.17Y-116.459
X139.17Y-117.639
X139.21Y-58.379
X139.65Y-91.234
X139.66Y-67.119
X139.66Y-68.069
X139.66Y-69.049
X139.66Y-70.009
X139.67Y-63.23
X139.67Y-64.219
X139.67Y-65.199
X139.67Y-66.179
X139.7Y-95.459
X139.78Y-99.02
X139.78Y-99.889
X140.14Y-112.999
X140.14Y-114.209
X140.15Y-116.459
X140.15Y-117.639
X140.17Y-106.599
X140.17Y-107.809
X140.21Y-58.379
X140.67Y-63.23
X140.96Y-103.889
X140.96Y-104.59
X141.13Y-116.459
X141.13Y-117.639
X141.14Y-112.999
X141.14Y-114.209
X141.15Y-106.599
X141.15Y-107.809
X141.21Y-58.379
X141.34Y-95.009
X141.67Y-63.23
X141.68Y-103.889
X141.68Y-104.59
X141.74Y-99.889
X142.09Y-106.599
X142.12Y-112.999
X142.12Y-114.209
X142.13Y-116.459
X142.13Y-117.639
X142.135Y-74.159
X142.21Y-58.379
X142.4Y-103.889
X142.4Y-104.59
X142.67Y-63.23
X142.74Y-99.889
X143.01Y-109.009
X143.03Y-106.599
X143.06Y-112.999
X143.06Y-114.209
X143.11Y-116.459
X143.11Y-117.639
X143.21Y-58.379
X143.67Y-63.23
X143.95Y-109.009
X144.05Y-116.459
X144.05Y-117.639
X144.21Y-58.379
X144.67Y-63.23
X144.97Y-117.639
X145.21Y-58.379
X145.67Y-63.23
X145.95Y-117.639
X146.21Y-58.379
X146.67Y-63.23
X146.93Y-117.639
X147.21Y-58.379
X147.28Y-103.239
X147.28Y-103.93
X147.28Y-104.62
X147.67Y-63.23
X147.88Y-117.639
X148.2Y-110.5
X148.21Y-58.379
X148.67Y-63.23
X148.86Y-117.639
X149.05Y-70.869
X149.21Y-58.379
X149.635Y-105.309
X149.84Y-116.459
X149.84Y-117.639
X150.19Y-68.079
X150.21Y-58.379
X150.236Y-69.359
X150.39Y-70.509
X150.735Y-59.734
X150.84Y-114.029
X150.84Y-115.239
X150.84Y-116.459
X150.84Y-117.639
X151.21Y-58.379
X151.82Y-114.029
X151.82Y-115.239
X151.82Y-116.459
X151.82Y-117.639
X151.953Y-72.597
X152.21Y-58.379
X152.33Y-110.499
X152.76Y-114.029
X152.76Y-115.239
X152.76Y-116.459
X152.76Y-117.639
X153.21Y-58.379
X153.31Y-110.499
X153.63Y-109.009
X153.7Y-116.459
X153.7Y-117.639
X154.06Y-65.084
X154.21Y-58.379
X154.29Y-110.499
X154.59Y-109.009
X154.68Y-116.459
X154.68Y-117.639
X154.93Y-113.219
X155.17Y-91.63
X155.21Y-58.379
X155.29Y-110.499
X155.435Y-98.334
X155.63Y-116.469
X155.63Y-117.639
X155.635Y-90.834
X155.67Y-113.229
X155.82Y-91.63
X156.21Y-58.379
X156.24Y-64.449
X156.24Y-68.269
X156.42Y-113.229
X156.44Y-72.449
X156.5Y-112.019
X156.58Y-116.469
X156.58Y-117.639
X156.73Y-106.199
X156.834Y-98.309
X157.12Y-64.449
X157.12Y-68.269
X157.21Y-58.379
X157.25Y-106.789
X157.38Y-72.249
X157.56Y-117.639
X157.73Y-106.199
X157.85Y-98.309
X158.05Y-64.449
X158.05Y-68.269
X158.09Y-91.7
X158.21Y-58.379
X158.23Y-106.789
X158.36Y-59.084
X158.36Y-90.509
X158.54Y-117.639
X158.85Y-91.7
X159.05Y-66.53
X159.21Y-58.379
X159.36Y-89.529
X159.385Y-87.534
X159.392Y-105.167
X159.54Y-117.639
X159.6Y-91.7
X159.64Y-112.719
X159.64Y-113.929
X159.66Y-60.734
X159.89Y-66.53
X159.89Y-67.209
X160.21Y-58.379
X160.29Y-100.699
X160.29Y-101.579
X160.52Y-117.639
X160.91Y-63.539
X161.21Y-58.379
X161.41Y-101.589
X161.46Y-117.639
X161.51Y-114.029
X161.51Y-115.239
X161.73Y-72.75
X161.735Y-67.734
X161.79Y-63.539
X162.1Y-69.249
X162.124Y-86.933
X162.21Y-58.379
X162.24Y-68.384
X162.24Y-81.039
X162.38Y-110.839
X162.385Y-90.509
X162.4Y-117.639
X162.49Y-114.029
X162.49Y-115.239
X162.58Y-69.919
X162.635Y-67.534
X162.73Y-72.75
X162.73Y-73.489
X163.05Y-110.839
X163.21Y-58.379
X163.25Y-104.839
X163.38Y-117.639
X163.49Y-114.029
X163.49Y-115.239
X163.6Y-99.459
X163.98Y-104.839
X164.09Y-98.689
X164.13Y-67.989
X164.17Y-101.61
X164.21Y-58.379
X164.33Y-117.639
X164.635Y-99.359
X164.77Y-70.699
X164.96Y-71.769
X165.19Y-98.689
X165.21Y-58.379
X165.31Y-68.629
X165.45Y-80.149
X165.59Y-72.429
X165.65Y-84.172
X165.73Y-95.619
X165.73Y-96.359
X165.73Y-112.639
X165.92Y-109.749
X165.92Y-110.819
X165.99Y-80.689
X166.04Y-116.059
X166.21Y-58.379
X166.23Y-73.049
X167.04Y-116.059
X167.07Y-109.749
X167.07Y-110.819
X167.12Y-73.469
X167.19Y-104.839
X167.21Y-58.379
X168.18Y-104.839
X168.21Y-58.379
X168.22Y-103.509
X168.3Y-72.909
X168.39Y-64.9
X168.44Y-106.809
X168.95Y-107.249
X169.16Y-64.9
X169.21Y-58.379
X170.21Y-58.379
X170.53Y-105.669
X171.21Y-58.379
X171.34Y-104.269
X171.42Y-60.799
X171.435Y-64.459
X171.51Y-105.669
X172.21Y-58.379
X172.22Y-60.799
X172.425Y-66.719
X172.52Y-105.419
X172.75Y-83.199
X172.77Y-84.269
X172.82Y-64.879
X173.01Y-62.189
X173.01Y-62.999
X173.02Y-60.799
X173.02Y-61.489
X173.21Y-58.379
X173.77Y-105.419
X174.21Y-58.379
X174.73Y-103.509
X174.82Y-65.689
X175.15Y-63.029
X175.21Y-58.379
X175.3Y-59.799
X175.56Y-100.7
X175.56Y-101.559
X175.67Y-65.689
X175.99Y-63.029
X176.21Y-58.379
X176.5Y-100.709
X176.51Y-65.689
X176.64Y-86.009
X176.64Y-86.999
X176.64Y-87.979
X176.64Y-88.979
X176.64Y-89.959
X176.64Y-90.949
X176.64Y-91.929
X176.64Y-92.929
X176.64Y-93.909
X176.64Y-94.849
X176.64Y-95.789
X176.64Y-96.769
X176.83Y-63.029
X176.935Y-72.109
X177.04Y-115.609
X177.16Y-59.799
X177.17Y-100.049
X177.21Y-58.379
X177.35Y-103.489
X177.72Y-63.029
X177.77Y-99.439
X178.01Y-76.459
X178.03Y-59.799
X178.06Y-68.029
X178.06Y-68.719
X178.06Y-69.409
X178.06Y-100.149
X178.06Y-101.559
X178.11Y-113.689
X178.21Y-58.379
X178.29Y-66.529
X178.35Y-103.489
X178.56Y-98.699
X178.56Y-99.519
X178.63Y-63.029
X178.95Y-59.799
X179.01Y-76.459
X179.01Y-77.609
X179.01Y-78.779
X179.04Y-101.559
X179.21Y-58.379
X179.33Y-103.489
X179.37Y-117.639
X179.54Y-63.029
X179.74Y-90.58
X179.86Y-93.299
X180.01Y-77.609
X180.04Y-101.559
X180.08Y-112.999
X180.21Y-58.379
X180.31Y-63.359
X180.31Y-64.479
X180.31Y-65.619
X180.35Y-117.639
X180.48Y-89.619
X180.57Y-90.58
X180.59Y-93.299
X180.66Y-82.189
X180.66Y-83.084
X181.01Y-77.609
X181.02Y-101.559
X181.06Y-112.999
X181.09Y-88.949
X181.16Y-116.389
X181.21Y-58.379
X181.28Y-59.799
X181.29Y-63.359
X181.29Y-64.479
X181.29Y-65.619
X181.31Y-93.299
X181.33Y-117.639
X181.58Y-99.769
X181.69Y-76.48
X182.04Y-112.999
X182.06Y-75.029
X182.16Y-116.389
X182.21Y-58.379
X182.24Y-105.039
X182.24Y-106.249
X182.28Y-59.799
X182.29Y-63.359
X182.29Y-64.479
X182.29Y-65.619
X182.33Y-117.639
X182.71Y-68.029
X182.96Y-91.279
X182.96Y-92.219
X182.99Y-108.069
X183.04Y-112.999
X183.14Y-116.389
X183.21Y-58.379
X183.24Y-105.039
X183.24Y-106.249
X183.28Y-59.799
X183.29Y-63.359
X183.29Y-64.479
X183.29Y-65.619
X183.31Y-117.639
X183.33Y-99.489
X183.5Y-75.029
X183.92Y-82.429
X183.92Y-83.299
X183.95Y-91.279
X183.95Y-92.219
X183.95Y-93.219
X183.95Y-99.869
X184.02Y-112.999
X184.21Y-58.379
X184.22Y-105.039
X184.22Y-106.249
X184.28Y-59.799
X184.29Y-63.359
X184.29Y-64.479
X184.29Y-117.639
X184.42Y-84.289
X184.44Y-77.74
X184.44Y-78.96
X184.45Y-76.48
X184.68Y-68.819
X184.71Y-86.769
X184.9Y-82.429
X184.9Y-83.299
X184.92Y-86.149
X184.92Y-87.399
X185.0Y-112.999
X185.16Y-105.039
X185.16Y-106.249
X185.21Y-58.379
X185.27Y-117.639
X185.28Y-59.799
X185.29Y-63.359
X185.29Y-64.479
X185.39Y-116.389
X185.55Y-93.289
X185.55Y-94.309
X185.55Y-95.289
X185.55Y-96.289
X185.55Y-97.269
X185.55Y-98.209
X185.55Y-99.149
X185.68Y-68.819
X185.98Y-112.999
X186.05Y-85.999
X186.16Y-106.249
X186.21Y-58.379
X186.27Y-117.639
X186.28Y-59.799
X186.29Y-63.359
X186.29Y-64.479
X186.39Y-116.389
X186.68Y-68.819
X186.69Y-93.289
X186.74Y-91.299
X186.77Y-87.999
X186.81Y-99.489
X186.92Y-89.649
X186.92Y-112.999
X186.93Y-102.779
X186.96Y-85.999
X187.13Y-106.249
X187.21Y-58.379
X187.25Y-117.639
X187.31Y-64.479
X187.31Y-65.609
X187.31Y-66.819
X187.37Y-82.399
X187.85Y-93.299
X187.93Y-85.999
X188.16Y-106.249
X188.19Y-117.639
X188.21Y-58.379
X188.29Y-65.609
X188.29Y-66.819
X188.31Y-64.479
X188.38Y-99.489
X188.59Y-71.169
X188.61Y-82.399
X188.61Y-109.119
X188.61Y-110.719
X188.92Y-84.959
X188.92Y-85.999
X189.13Y-117.639
X189.15Y-96.299
X189.16Y-87.369
X189.16Y-92.599
X189.21Y-58.379
X189.212Y-100.779
X189.237Y-105.729
X189.29Y-65.609
X189.29Y-66.819
X189.31Y-64.479
X189.55Y-77.069
X189.55Y-79.639
X189.59Y-110.719
X189.7Y-97.719
X189.89Y-61.509
X189.89Y-114.509
X190.1Y-112.959
X190.1Y-116.089
X190.11Y-117.639
X190.14Y-59.949
X190.14Y-63.079
X190.21Y-58.379
X190.29Y-65.609
X190.29Y-66.819
X190.31Y-64.479
X190.57Y-110.719
X190.68Y-97.719
X190.85Y-83.319
X191.06Y-117.639
X191.21Y-58.379
X191.29Y-65.609
X191.29Y-66.819
X191.29Y-68.819
X191.52Y-82.689
X191.57Y-110.719
X191.62Y-97.719
X192.13Y-82.069
X192.29Y-65.609
X192.29Y-66.819
X192.55Y-110.719
X192.56Y-97.719
X193.29Y-65.609
X193.29Y-66.819
X193.49Y-110.719
X193.54Y-97.719
X194.31Y-65.609
X194.31Y-66.819
X194.31Y-72.659
X194.31Y-73.659
X194.31Y-74.659
X194.31Y-76.679
X194.31Y-77.679
X194.31Y-79.679
X194.31Y-80.679
X194.31Y-81.659
X194.31Y-82.659
X194.31Y-83.639
X194.31Y-84.579
X194.31Y-87.169
X194.31Y-88.149
X194.31Y-92.009
X194.31Y-92.989
X194.31Y-100.329
X194.31Y-101.309
X194.31Y-105.169
X194.31Y-106.149
X194.43Y-110.719
X194.54Y-97.719
X195.31Y-65.609
X195.31Y-66.819
X195.41Y-110.719
X195.52Y-72.659
X195.52Y-73.659
X195.52Y-74.659
X195.52Y-75.679
X195.52Y-76.679
X195.52Y-77.679
X195.52Y-78.679
X195.52Y-79.679
X195.52Y-80.679
X195.52Y-81.659
X195.52Y-82.659
X195.52Y-83.639
X195.52Y-84.579
X195.52Y-87.169
X195.52Y-88.149
X195.52Y-89.149
X195.52Y-91.069
X195.52Y-92.009
X195.52Y-92.989
X195.52Y-97.719
X195.52Y-100.329
X195.52Y-101.309
X195.52Y-102.309
X195.52Y-104.229
X195.52Y-105.169
X195.52Y-106.149
X196.31Y-64.479
X196.31Y-65.609
X196.31Y-66.819
X196.31Y-71.169
X196.36Y-109.129
X196.36Y-110.719
X196.36Y-111.509
X196.53Y-96.299
X196.53Y-97.719
T4
X176.559Y-109.167
X177.39Y-109.149
X177.39Y-109.998
X177.408Y-108.318
X178.239Y-109.149
T5
X129.47Y-89.223
X129.48Y-88.119
X129.48Y-101.319
X130.56Y-101.329
X137.07Y-104.699
X138.13Y-104.699
X152.734Y-77.819
T6
X98.31Y-61.509
X98.31Y-114.509
X99.013Y-59.812
X99.013Y-63.206
X99.013Y-112.812
X99.013Y-116.206
X100.71Y-59.109
X100.71Y-63.909
X100.71Y-112.109
X100.71Y-116.909
X102.407Y-59.812
X102.407Y-63.206
X102.407Y-112.812
X102.407Y-116.206
X103.11Y-61.509
X103.11Y-114.509
X191.31Y-61.509
X191.31Y-114.509
X192.013Y-59.812
X192.013Y-63.206
X192.013Y-112.812
X192.013Y-116.206
X193.71Y-59.109
X193.71Y-63.909
X193.71Y-112.109
X193.71Y-116.909
X195.407Y-59.812
X195.407Y-63.206
X195.407Y-112.812
X195.407Y-116.206
X196.11Y-61.509
X196.11Y-114.509
T7
X106.47Y-60.279
X111.47Y-61.479
T9
X112.832Y-98.289
X112.832Y-100.829
X112.832Y-103.369
X112.832Y-105.909
X115.372Y-99.549
X115.372Y-102.089
X115.372Y-104.629
X115.372Y-107.169
T10
X135.29Y-110.569
X141.79Y-110.569
X185.99Y-75.819
X185.99Y-78.359
X185.99Y-80.899
X188.53Y-75.819
X188.53Y-78.359
X188.53Y-80.899
T11
X101.572Y-96.104
X101.572Y-98.644
X101.572Y-106.814
X101.572Y-109.354
T12
X104.15Y-79.729
X104.15Y-84.809
X104.15Y-89.889
T13
X109.522Y-94.984
X109.522Y-110.474
T14
X100.71Y-61.509
X100.71Y-114.509
X193.71Y-61.509
X193.71Y-114.509
T7
X190.77Y-98.959G85X191.87Y-98.959
G05
X190.77Y-107.599G85X191.87Y-107.599
G05
X190.79Y-85.829G85X191.89Y-85.829
G05
X190.79Y-94.469G85X191.89Y-94.469
G05
X195.2Y-98.959G85X195.8Y-98.959
G05
X195.2Y-107.599G85X195.8Y-107.599
G05
X195.22Y-85.829G85X195.82Y-85.829
G05
X195.22Y-94.469G85X195.82Y-94.469
G05
T8
X185.83Y-66.519G85X185.23Y-66.519
G05
X186.94Y-71.119G85X186.34Y-71.119
G05
X190.94Y-71.119G85X190.34Y-71.119
G05
X193.94Y-71.119G85X193.34Y-71.119
G05
T10
X103.23Y-68.934G85X103.23Y-71.134
G05
X107.73Y-74.834G85X105.53Y-74.834
G05
X109.53Y-68.734G85X109.53Y-71.334
G05
T0
M30
