G04 #@! TF.GenerationSoftware,KiCad,Pcbnew,7.0.1-3b83917a11~172~ubuntu22.10.1*
G04 #@! TF.CreationDate,2023-03-21T16:32:08+07:00*
G04 #@! TF.ProjectId,GatewayPlus_V1.4,47617465-7761-4795-906c-75735f56312e,rev?*
G04 #@! TF.SameCoordinates,Original*
G04 #@! TF.FileFunction,Paste,Bot*
G04 #@! TF.FilePolarity,Positive*
%FSLAX46Y46*%
G04 Gerber Fmt 4.6, Leading zero omitted, Abs format (unit mm)*
G04 Created by KiCad (PCBNEW 7.0.1-3b83917a11~172~ubuntu22.10.1) date 2023-03-21 16:32:08*
%MOMM*%
%LPD*%
G01*
G04 APERTURE LIST*
G04 Aperture macros list*
%AMRoundRect*
0 Rectangle with rounded corners*
0 $1 Rounding radius*
0 $2 $3 $4 $5 $6 $7 $8 $9 X,Y pos of 4 corners*
0 Add a 4 corners polygon primitive as box body*
4,1,4,$2,$3,$4,$5,$6,$7,$8,$9,$2,$3,0*
0 Add four circle primitives for the rounded corners*
1,1,$1+$1,$2,$3*
1,1,$1+$1,$4,$5*
1,1,$1+$1,$6,$7*
1,1,$1+$1,$8,$9*
0 Add four rect primitives between the rounded corners*
20,1,$1+$1,$2,$3,$4,$5,0*
20,1,$1+$1,$4,$5,$6,$7,0*
20,1,$1+$1,$6,$7,$8,$9,0*
20,1,$1+$1,$8,$9,$2,$3,0*%
G04 Aperture macros list end*
%ADD10RoundRect,0.127500X-0.322500X0.297500X-0.322500X-0.297500X0.322500X-0.297500X0.322500X0.297500X0*%
%ADD11R,1.510000X0.458000*%
%ADD12RoundRect,0.127500X0.322500X-0.297500X0.322500X0.297500X-0.322500X0.297500X-0.322500X-0.297500X0*%
%ADD13R,0.620000X1.400000*%
%ADD14R,1.100000X2.400000*%
G04 APERTURE END LIST*
D10*
X140685000Y-95434056D03*
X140685000Y-96984056D03*
D11*
X142410000Y-99009056D03*
X142410000Y-98209056D03*
X142410000Y-97409056D03*
X142410000Y-96609056D03*
X142410000Y-95809056D03*
X142410000Y-95009056D03*
X142410000Y-94209056D03*
X142410000Y-93409056D03*
X142410000Y-92609056D03*
X142410000Y-91809056D03*
X142410000Y-91009056D03*
X142410000Y-90209056D03*
X142410000Y-89409056D03*
X142410000Y-88609056D03*
X142410000Y-87809056D03*
X142410000Y-87009056D03*
X142410000Y-86209056D03*
X142410000Y-85409056D03*
X142410000Y-84609056D03*
X142410000Y-83809056D03*
X142410000Y-83009056D03*
X142410000Y-82209056D03*
X142410000Y-81409056D03*
X142410000Y-80609056D03*
X142410000Y-79809056D03*
X142410000Y-79009056D03*
X142410000Y-78209056D03*
X153910000Y-78209056D03*
X153910000Y-79009056D03*
X153910000Y-79809056D03*
X153910000Y-80609056D03*
X153910000Y-81409056D03*
X153910000Y-82209056D03*
X153910000Y-83009056D03*
X153910000Y-83809056D03*
X153910000Y-84609056D03*
X153910000Y-85409056D03*
X153910000Y-86209056D03*
X153910000Y-87009056D03*
X153910000Y-87809056D03*
X153910000Y-88609056D03*
X153910000Y-89409056D03*
X153910000Y-90209056D03*
X153910000Y-91009056D03*
X153910000Y-91809056D03*
X153910000Y-92609056D03*
X153910000Y-93409056D03*
X153910000Y-94209056D03*
X153910000Y-95009056D03*
X153910000Y-95809056D03*
X153910000Y-96609056D03*
X153910000Y-97409056D03*
X153910000Y-98209056D03*
X153910000Y-99009056D03*
D10*
X155635000Y-93034056D03*
X155635000Y-94584056D03*
D12*
X140685000Y-93984056D03*
X140685000Y-92434056D03*
D10*
X155635000Y-88634056D03*
X155635000Y-90184056D03*
D12*
X140685000Y-99859056D03*
X140685000Y-98309056D03*
D13*
X159230000Y-101831556D03*
X150430000Y-101831556D03*
X151530000Y-101831556D03*
X152630000Y-101831556D03*
X153730000Y-101831556D03*
X154830000Y-101831556D03*
X155930000Y-101831556D03*
X157030000Y-101831556D03*
X158130000Y-101831556D03*
D14*
X160610000Y-112636556D03*
X160610000Y-103456556D03*
X145510000Y-103381556D03*
X144535000Y-112631556D03*
D12*
X140685000Y-90184056D03*
X140685000Y-88634056D03*
D10*
X140560000Y-76435000D03*
X140560000Y-77985000D03*
M02*
